<?xml version="1.0" encoding="utf-8"?>
<!-- Generator: Adobe Illustrator 16.0.0, SVG Export Plug-In . SVG Version: 6.00 Build 0)  -->
<!DOCTYPE svg PUBLIC "-//W3C//DTD SVG 1.1//EN" "http://www.w3.org/Graphics/SVG/1.1/DTD/svg11.dtd">
<svg version="1.1" id="Camada_1" xmlns="http://www.w3.org/2000/svg" xmlns:xlink="http://www.w3.org/1999/xlink" x="0px" y="0px"
	 width="4096px" height="3112px" viewBox="0 0 4096 3112" enable-background="new 0 0 4096 3112" xml:space="preserve">
<path fill-rule="evenodd" clip-rule="evenodd" fill="none" d="M620.677,3112.649c-21.282,0-42.563,0-63.845,0
	c5.603-26.547,9.851-53.467,17.037-79.58c38.02-138.16,121.502-243.857,240.346-320.163
	c213.233-136.904,445.519-192.485,698.43-155.397c73.53,10.782,147.712,18.389,222.385,16.055
	c89.102-2.789,172.89-24.882,249.587-70.878c110.776-66.436,195.006-159.796,265.912-266.091
	c79.675-119.446,129.173-251.931,165.704-389.761c37.906-143.001,58.543-289.402,84.955-434.677
	c20.094-110.513,41.563-220.784,88.591-323.989c43.102-94.583,106.59-169.537,203.584-212.658
	c67.09-29.827,138.161-40.627,210.548-42.771c81.455-2.415,162.825-5.715,244.184-10.475
	c104.364-6.103,208.363-15.543,312.087-28.427c183.293-22.764,364.161-56.849,540.067-114.404c0,41.383,0,82.762,0,124.144
	c-4.05,0.759-8.178,1.227-12.134,2.321c-72.955,20.152-146.772,36.54-221.179,50.232c-139.508,25.667-280.076,42.906-421.47,54.257
	c-103.61,8.313-207.303,14.282-311.18,17.246c-52.53,1.5-105.1,2.362-157.165,10.523c-111.794,17.517-206.98,64.5-276.119,156.95
	c-47.839,63.973-75.982,137.171-97.954,213.057c-29.145,100.673-45.362,204.071-63.851,306.979
	c-21.844,121.58-45.01,242.824-82.406,360.875c-61.063,192.759-159.173,361.634-315.451,493.559
	c-101.954,86.064-219.131,130.998-352.718,131.649c-95.294,0.464-189.416-14.947-284.137-22.328
	c-69.625-5.428-139.116-5.923-208.449,3.309c-79.548,10.588-155.89,33.772-230.826,61.396
	c-121.79,44.895-233.166,106.769-320.983,204.972C676.652,2924.141,634.742,3011.939,620.677,3112.649z"/>
<path fill-rule="evenodd" clip-rule="evenodd" fill="none" d="M4100.248,810.67c0,37.836,0,75.668,0,113.503
	c-29.346,9.366-59.672,14.628-89.752,20.714c-143.699,29.075-288.771,48.411-434.809,61.23
	c-122.962,10.797-246.069,17.871-369.455,21.757c-52.406,1.649-105.081,1.139-157.25,9.39
	c-71.528,11.316-139.354,32.255-199.137,74.351c-78.402,55.21-126.183,132.613-158.861,220.993
	c-40.404,109.284-59.599,223.58-80.77,337.404c-26.269,141.234-53.353,282.237-104.431,417.236
	c-62.263,164.574-156.223,306.823-293.941,418.514c-104.364,84.644-222.585,128.633-357.765,128.412
	c-90.07-0.146-178.986-12.506-268.359-20.015c-75.597-6.353-151.099-8.523-226.199,2.947
	c-133.75,20.433-260.972,61.771-379.923,126.465c-99.327,54.022-183.148,125.539-238.655,226.019
	c-24.664,44.639-43.864,91.591-49.325,143.06c-21.282,0-42.563,0-63.846,0c3.508-17.957,6.013-36.176,10.68-53.824
	c33.894-128.175,110.611-225.579,217.948-300.453c116.816-81.487,248.04-128.511,385.744-159.609
	c59.655-13.472,120.473-17.919,181.281-16.987c104.563,1.608,208.033,18.753,312.356,24.988
	c88.663,5.3,174.725-4.385,257.074-38.126c107.152-43.907,190.936-118.743,264.955-205.54
	c103.492-121.356,169.337-262.427,214.615-414.036c42.719-143.042,65.379-290.324,92.404-436.699
	c19.317-104.635,39.479-209.163,81.951-307.615c27.438-63.593,63.121-121.694,116.783-167.005
	c79.945-67.496,175.093-93.125,276.967-99.035c53.624-3.11,107.328-5.057,161.024-6.584c108.05-3.076,215.734-11.205,323.31-21.458
	c110.584-10.534,220.549-25.386,329.887-44.929C3937.383,850.965,4018.993,831.613,4100.248,810.67z"/>
<path fill-rule="evenodd" clip-rule="evenodd" fill="none" d="M4100.248,931.267c0,36.651,0,73.306,0,109.956
	c-2.944,0.135-5.965-0.101-8.826,0.458c-159.59,31.066-320.571,51.199-482.619,64.223c-130.122,10.46-260.418,16.415-390.842,19.799
	c-53.962,1.399-107.334,5.96-159.82,18.441c-88.764,21.105-165.194,62.875-223.074,135.183
	c-43.891,54.821-72.28,117.496-93.521,183.801c-28.916,90.264-46.063,183.268-64.052,276.081
	c-24.518,126.479-49.427,252.836-94.034,374.319c-61.167,166.586-155.38,309.722-294.774,421.708
	c-107.162,86.089-228.344,130.555-366.335,130.787c-93.007,0.16-184.88-12.875-277.269-19.71
	c-71.465-5.288-142.899-7.471-213.803,2.717c-142.741,20.509-278.768,62.893-405.2,133.239
	c-77.327,43.027-144.165,98.438-196.009,171.089c-34.543,48.403-56.329,102.201-71.061,159.291c-21.283,0-42.564,0-63.846,0
	c30.546-150.888,119.915-259.257,246.783-340.085c75.279-47.962,157.319-81.145,242.053-108.242
	c104.361-33.377,210.759-51.909,320.791-48.23c80.943,2.705,161.174,13.015,241.729,19.845
	c59.519,5.046,118.966,7.565,178.575,0.688c131.02-15.115,239.479-75.663,334.543-164.084
	c124.938-116.205,208.938-258.163,264.463-418.188c46.479-133.95,71.644-272.943,97.483-411.78
	c19.571-105.134,38.274-210.508,76.24-311.122c29.66-78.611,71.019-149.437,138.054-202.481
	c78.331-61.985,170.434-84.68,267.605-90.773c83.658-5.248,167.539-5.49,251.28-10.017c116.762-6.311,233.208-15.397,349.348-28.833
	C3837.416,983.924,3969.666,962.466,4100.248,931.267z"/>
<path fill-rule="evenodd" clip-rule="evenodd" fill="none" d="M4100.248,1044.77c0,34.289,0,68.574,0,102.862
	c-152.059,25.94-305.154,42.581-458.996,53.724c-119.018,8.618-238.166,13.242-357.375,16.509
	c-53.951,1.479-107.25,6.11-159.896,18.005c-125.843,28.435-219.009,98.583-277.208,214.75
	c-37.433,74.715-58.812,154.473-76.848,235.306c-27.271,122.23-47.39,246.031-81.643,366.732
	c-54.077,190.557-144.22,358.771-296.851,489.879c-113.18,97.22-242.258,152.204-392.261,154.41
	c-79.263,1.165-157.938-8.42-236.73-15.372c-78.301-6.906-156.745-13.331-235.174-4.65
	c-157.921,17.478-308.334,61.011-447.29,138.916c-119.997,67.271-212.042,159.679-250.03,296.809c-21.281,0-42.563,0-63.845,0
	c6.269-29.605,15.99-58.032,28.638-85.521c52.296-113.666,141.57-190.889,249.432-247.83
	c217.388-114.764,448.189-152.928,691.902-119.281c76.416,10.551,153.585,16.35,231.35,10.427
	c101.502-7.725,194.584-38.368,277.994-96.142c165.568-114.678,275.191-271.763,343.781-459.309
	c49.961-136.606,75.832-279.104,103.56-421.191c19.919-102.068,39.604-204.304,81.472-300.428
	c25.996-59.689,60.046-113.916,109.846-156.946c63.291-54.684,138.3-82.63,219.824-95.297
	c86.703-13.47,174.391-9.467,261.596-13.817c71.346-3.558,142.71-7.021,213.92-12.282c115.992-8.57,231.691-20.621,346.67-38.442
	C3984.4,1067.549,4042.918,1059.329,4100.248,1044.77z"/>
<path fill-rule="evenodd" clip-rule="evenodd" fill="none" d="M900.887,3112.649c-21.282,0-42.565,0-63.846,0
	c11.861-50.9,35.233-96.44,66.041-138.151c67.39-91.244,159.272-150.6,261.523-194.396
	c169.497-72.605,345.182-112.773,531.375-97.217c65.857,5.504,131.608,12.576,197.611,16.396
	c62.553,3.619,125.083,5.382,187.445-3.115c132.862-18.103,242.416-82.251,339.237-171.573
	c121.567-112.155,201.761-250.183,253.857-405.816c37.049-110.687,59.284-224.941,82.411-339.022
	c20.423-100.741,40.287-201.688,81.209-296.885c53.697-124.916,144.539-206.042,277.665-239.091
	c70.651-17.54,142.581-19.376,214.553-21.102c113.933-2.729,227.659-8.593,341.3-17.239c74.77-5.688,149.339-12.979,223.817-21.553
	c68.659-7.9,136.817-19.141,205.163-29.158c0,31.923,0,63.846,0,95.769c-2.951,0.045-5.947-0.236-8.848,0.18
	c-126.855,18.146-254.259,30.582-382.102,39.65c-116.637,8.275-233.424,12.238-350.218,15.93
	c-46.729,1.476-93.187,3.637-139.29,11.441c-144.871,24.527-253.973,97.267-316.806,233.476
	c-32.408,70.254-52.251,144.311-69.184,219.298c-24.454,108.312-43.955,217.744-74.591,324.648
	c-54.118,188.851-145.058,354.408-299.077,481.521c-116.915,96.488-249.06,149.119-401.613,149.302
	c-81.088,0.098-161.47-8.981-242.025-15.601c-80.831-6.645-161.852-11.304-242.282-1.22
	c-152.416,19.11-298.989,59.866-433.943,135.076C1029.904,2905.703,941.168,2987.944,900.887,3112.649z"/>
<path fill-rule="evenodd" clip-rule="evenodd" fill="none" d="M4100.248,1257.588c0,29.556,0,59.117,0,88.674
	c-2.955,0.066-5.944-0.149-8.854,0.235c-108.338,14.301-217.207,23.311-326.172,30.62c-118.428,7.946-237.103,11.718-355.76,14.375
	c-63.58,1.424-126.08,8.278-187.391,25.158c-100.858,27.77-179.423,85.214-233.268,175.54
	c-37.351,62.657-58.996,131.331-77.063,201.313c-28.358,109.863-47.544,221.88-78.258,331.219
	c-53.049,188.839-143.112,354.049-298.222,479.7c-116.07,94.025-246.764,146.804-396.857,149.664
	c-72.222,1.376-143.976-5.659-215.721-11.791c-98.419-8.41-196.793-15.701-295.246-2.658
	c-146.998,19.469-288.521,58.191-420.099,127.822c-105.061,55.594-190.744,131.067-235.513,245.189c-21.281,0-42.563,0-63.844,0
	c8.827-32.248,23.608-61.902,41.519-89.803c53.271-82.986,128.071-142.156,215.23-185
	c170.991-84.047,350.696-132.091,543.132-126.766c79.83,2.206,159.042,10.662,238.497,16.716
	c77.385,5.896,154.392,7.22,231.203-6.789c134.906-24.601,244.257-95.4,340.685-188.734
	c87.864-85.04,152.745-185.924,199.316-298.772c51.487-124.76,78.948-256.104,106.264-387.491
	c18.41-88.546,36.983-177.055,71.051-261.34c35.492-87.828,87.842-161.892,172.55-208.983
	c71.805-39.917,150.209-55.386,231.138-61.063c54.854-3.845,109.877-2.144,164.741-4.673c97.294-4.479,194.626-8.448,291.751-16.353
	c70.031-5.698,139.98-12.047,209.779-20.024C4009.994,1268.412,4055.114,1262.929,4100.248,1257.588z"/>
<path fill-rule="evenodd" clip-rule="evenodd" fill="none" d="M1046.313,3112.649c-22.465,0-44.927,0-67.392,0
	c31.5-81.597,86.434-144.394,157.137-194.088c83.599-58.765,177.054-96.018,273.987-126.56
	c155.148-48.884,313.507-61.032,474.695-47.256c92.25,7.883,184.242,19.342,277.268,13.965
	c78.782-4.55,154.922-19.698,225.902-54.413c188.902-92.379,319.008-239.959,400.646-432.029
	c47.664-112.128,73.704-230.479,99.322-348.926c18.864-87.22,37.773-174.421,71.06-257.681
	c50.479-126.264,138.829-210.075,271.767-245.343c58.145-15.425,117.465-22.127,176.995-23.111
	c124.618-2.055,249.063-6.963,373.388-15.29c53.578-3.588,107.104-8.101,160.59-12.906c52.898-4.752,105.715-10.402,158.57-15.656
	c0,28.375,0,56.751,0,85.126c-7.676,0.021-15.428-0.658-23.014,0.17c-72.793,7.933-145.816,12.816-218.824,18.223
	c-126.08,9.332-252.399,12.412-378.677,16.069c-56.929,1.646-113.235,5.965-168.732,18.576
	c-125.419,28.504-220.48,96.423-277.312,214.079c-36.817,76.208-56.955,157.618-75.977,239.41
	c-25.152,108.186-47.62,217.067-87.111,321.388c-56.508,149.268-144.046,275.568-271.533,373.481
	c-101.406,77.881-213.818,128.285-341.914,137.863c-101.594,7.597-203.013-1.909-304.239-11.115
	c-70.126-6.377-140.481-8.278-210.693-4.137c-93.595,5.525-184.75,25.723-274.518,52.142
	c-114.209,33.617-223.416,77.726-315.267,156.26C1106.61,3010.076,1068.205,3055.31,1046.313,3112.649z"/>
<path fill-rule="evenodd" clip-rule="evenodd" fill="none" d="M4100.248,1442.029c0,27.195,0,54.386,0,81.581
	c-6.494,0.114-13.014-0.087-19.484,0.388c-75.352,5.508-150.621,12.716-226.059,16.318c-107.342,5.127-214.793,8.216-322.228,11.015
	c-62.329,1.625-123.652,8.947-183.856,25.148c-106.236,28.591-187.845,88.871-241.201,186.25
	c-34.143,62.314-54.063,129.616-71.579,197.802c-28.218,109.832-49.606,221.489-88.807,328.364
	c-51.289,139.838-129.911,260.592-246.211,355.424c-90.776,74.025-190.94,128.821-307.326,149.933
	c-65.886,11.95-132.268,14.59-199.326,10.977c-64.286-3.464-128.403-8.912-192.596-13.336
	c-72.006-4.963-144.005-8.385-215.834-1.219c-139.647,13.934-274.718,47.433-404.068,102.117
	c-79.062,33.422-151.631,77.435-209.752,142.026c-20.906,23.235-40.996,47.355-51.122,77.833c-22.464,0-44.929,0-67.393,0
	c2.39-6.017,4.348-12.248,7.233-18.015c35.489-70.927,91.38-122.585,156.865-164.934c74.584-48.238,156.489-79.742,240.78-106.409
	c165.265-52.291,334.097-66.001,505.954-49.917c87.043,8.144,174.104,16.449,261.66,12.885
	c75.003-3.058,148.136-17.104,216.959-47.482c170.708-75.342,297.446-198.257,385.016-362.144
	c55.66-104.168,86.477-216.988,113.066-331.197c21.291-91.463,39.04-183.881,70.973-272.552
	c22.622-62.82,52.682-121.626,99.963-169.787c67.625-68.889,153.291-100.057,246.361-114.379
	c70.277-10.814,141.242-9.633,212.083-11.597c117.429-3.256,234.812-8.806,351.95-17.846
	C3981.68,1454.693,4041.193,1450.558,4100.248,1442.029z"/>
<path fill-rule="evenodd" clip-rule="evenodd" fill="none" d="M1195.284,3112.649c-23.646,0-47.292,0-70.938,0
	c34.175-63.433,83.644-112.463,143.249-151.899c71.617-47.382,149.962-80.028,231.762-104.815
	c128.412-38.909,258.826-64.979,393.935-62.525c32.515,0.588,64.94,2.24,97.341,4.112c53.624,3.092,107.126,8.31,160.75,11.437
	c89.781,5.233,179.862,8.843,267.909-14.05c219.601-57.102,376.282-193.569,482.987-390.214
	c59.203-109.107,88.336-228.89,116.698-348.68c19.464-82.211,37.684-164.781,70.545-243.165
	c46.52-110.953,124.4-187.629,240.297-224.646c72.951-23.301,148.165-30.443,223.771-31.548
	c93.35-1.362,186.561-5.681,279.835-8.549c25.945-0.797,51.847-3.159,77.764-4.867c63.021-4.16,126.038-8.354,189.06-12.535
	c0,24.828,0,49.657,0,74.486c-25.932,1.315-51.912,2.017-77.787,4.049c-127.182,9.997-254.671,13.377-382.119,16.187
	c-81.234,1.79-161.672,6.37-240.065,29.46c-92.526,27.261-166.985,78.861-218.241,161.89
	c-26.907,43.582-45.698,90.683-60.824,139.314c-31.429,101.037-51.017,205.246-81.979,306.432
	c-52.038,170.043-140.206,315.479-284.539,423.615c-94.819,71.041-198.464,121.165-316.858,137.109
	c-58.594,7.891-117.32,10.024-176.624,6.866c-67.218-3.578-134.251-9.415-201.425-13.374c-79.654-4.689-159.271-6.017-238.616,2.63
	c-84.761,9.23-167.825,27.869-249.54,51.915c-113.03,33.26-221.472,76.342-310.275,157.275
	C1234.847,3052.718,1209.284,3078.33,1195.284,3112.649z"/>
<path fill-rule="evenodd" clip-rule="evenodd" fill="none" d="M4100.248,1612.284c0,23.647,0,47.292,0,70.939
	c-12.4,0.086-24.848-0.476-37.195,0.356c-115.469,7.79-231.092,11.777-346.781,13.346c-84.088,1.144-167.611,5.729-249.025,28.986
	c-93.846,26.81-170.372,77.489-222.313,161.889c-30.941,50.273-50.686,105.248-67.189,161.487
	c-28.765,98.022-49.323,198.305-83.303,294.935c-59.766,169.961-163.386,304.642-316.161,401.199
	c-83.073,52.508-172.153,88.292-269.846,101.489c-108.501,14.655-216.874,5.192-325.271-1.781
	c-68.848-4.43-137.563-8.693-206.79-6.912c-114.338,2.94-225.208,24.672-334.818,54.599
	c-92.125,25.151-181.318,58.038-261.132,111.882c-43.242,29.177-83.241,62.267-110.651,107.951c-23.646,0-47.292,0-70.938,0
	c44.742-72.055,109.429-121.498,183.121-160.334c94.891-50.003,196.827-79.55,300.868-103.306
	c126.076-28.787,253.505-35.68,382.063-26.204c91.238,6.729,182.281,15.038,274.004,14.124
	c112.13-1.124,217.767-25.765,316.252-79.604c140.706-76.917,249.783-185.267,323.698-328.072
	c45.133-87.199,72.529-180.719,96.779-275.32c20.527-80.087,37.223-161.238,66.154-239.012
	c22.688-60.994,52.615-117.863,99.558-163.728c49.329-48.192,109.656-76.974,175.835-95.02
	c77.798-21.217,157.557-23.634,237.188-25.117c67.332-1.25,134.643-3.089,201.906-5.722
	C3937.635,1622.148,4018.924,1616.735,4100.248,1612.284z"/>
<path fill-rule="evenodd" clip-rule="evenodd" fill="none" d="M4100.248,1686.771c0,22.463,0,44.929,0,67.393
	c-5.227,0.932-10.426,2.483-15.684,2.705c-61.362,2.577-122.717,5.459-184.104,7.253c-66.725,1.95-133.537,1.548-200.203,4.562
	c-62.649,2.833-124.693,11.538-184.785,30.797c-68.316,21.898-128.281,56.447-175.1,112.28
	c-39.466,47.074-64.783,101.286-84.24,158.762c-26.555,78.441-44.701,159.291-68.1,238.641
	c-44.699,151.602-116.467,286.241-239.832,389.601c-138.313,115.887-296.186,178.392-477.568,179.677
	c-45.557,0.321-90.939-2.365-136.367-4.285c-37.734-1.59-75.396-4.973-113.07-7.856c-83.167-6.365-166.426-8.85-249.537-0.979
	c-106.205,10.056-210.29,31.874-312.242,63.011c-93.177,28.459-182.865,64.877-258.989,127.926
	c-19.809,16.405-40.494,32.563-52.622,56.395c-23.646,0-47.294,0-70.94,0c2.748-4.495,5.097-9.305,8.305-13.442
	c26.306-33.949,58.021-62.063,93.469-86.115c79.243-53.778,167.562-86.803,258.803-113.091
	c163.958-47.236,330.881-66.138,501.243-52.553c84.742,6.758,169.416,13.876,254.593,13.955
	c124.282,0.119,241.486-26.584,349.94-88.105c131.614-74.655,236.132-176.135,306.538-311.283
	c44.853-86.098,72.238-178.288,96.699-271.606c19.321-73.703,35.927-148.234,64.258-219.292
	c23.66-59.346,54.862-113.773,103.079-157.123c54.834-49.298,120.622-75.013,191.267-91.563
	c88.952-20.839,179.673-17.555,269.783-20.284c81.467-2.463,162.919-5.404,244.309-9.172
	C4046.107,1691.727,4073.598,1693.494,4100.248,1686.771z"/>
<path fill-rule="evenodd" clip-rule="evenodd" fill="none" d="M1425.837,3112.649c-24.828,0-49.657,0-74.485,0
	c42.926-51.182,96.15-89.307,155.772-117.882c163.194-78.208,336.919-115.432,516.515-126.055
	c102.751-6.075,205.378,3.796,307.838,11.066c78.493,5.569,156.974,8.871,235.04-1.867
	c197.921-27.225,357.718-123.072,483.607-276.118c78.5-95.439,121.072-208.752,153.87-326.293
	c23.804-85.301,43.01-171.977,77.278-254.149c44.479-106.661,120.385-178.792,230.829-214.628
	c77.37-25.103,157.343-32.384,237.661-33.734c116.918-1.968,233.754-4.847,350.484-11.732c0,21.281,0,42.563,0,63.845
	c-90.268,4.191-180.574,6.568-270.941,7.645c-67.936,0.814-135.627,5.747-202.329,20.326
	c-106.381,23.249-195.713,72.228-255.007,167.109c-33.247,53.197-52.686,112.124-70.268,171.727
	c-22.899,77.61-42.307,156.236-70.85,232.184c-79.726,212.132-230.946,351.617-439.448,432.144
	c-134.304,51.868-274.429,47.552-414.735,38.381c-86.517-5.654-172.91-12.093-259.851-10.163
	c-77.708,1.725-154.262,10.653-230.299,25.594c-122.168,24-242.179,54.838-351.893,116.284
	C1493.867,3049.161,1454.636,3074.479,1425.837,3112.649z"/>
<path fill-rule="evenodd" clip-rule="evenodd" fill="none" d="M4100.248,1832.195c0,20.101,0,40.197,0,60.299
	c-86.779,2.196-173.556,4.389-260.334,6.585c-61.075,1.544-121.34,9.394-180.283,25.455
	c-79.35,21.622-149.339,58.736-201.078,125.076c-44.116,56.562-68.352,122.394-89.035,189.891
	c-18.351,59.883-34.375,120.462-54.548,179.804c-43.544,128.083-112.037,239.383-218.194,325.316
	c-140.351,113.613-300.236,173.818-481.485,176.351c-102.34,1.427-204.047-9.11-306.067-13.679
	c-133.898-5.995-266.778,2.512-398.138,31.466c-107.089,23.605-212.592,51.454-309.869,103.862
	c-35.402,19.072-69.375,40.469-97.345,70.028c-23.646,0-47.292,0-70.938,0c5.11-5.701,9.822-11.828,15.395-17.037
	c61.789-57.754,136.366-93.452,215.12-120.162c182.314-61.836,369.083-95.39,562.577-83.128
	c74.829,4.741,149.832,6.931,224.615,12.203c76.479,5.394,152.628,3.37,227.591-11.681
	c203.438-40.835,365.971-145.643,483.149-317.705c57.968-85.117,89.771-181.835,117.493-279.999
	c19.907-70.499,37.735-141.641,66.158-209.486c43.614-104.105,117.401-175.443,225.394-210.843
	c70.913-23.246,144.178-32.861,218.054-34.341C3892.428,1838.39,3996.332,1835.282,4100.248,1832.195z"/>
<path fill-rule="evenodd" clip-rule="evenodd" fill="none" d="M4100.248,1899.588c0,18.917,0,37.836,0,56.752
	c-58.494-1.909-116.876,2.577-175.33,3.086c-56.879,0.495-113.142,6.574-168.752,18.296c-80.643,17-154.779,47.136-213.283,107.961
	c-43.953,45.691-72.027,100.731-91.885,160.073c-23.426,70.008-44.542,140.791-68.18,210.723
	c-32.968,97.531-82.508,185.82-155.32,259.313c-71.553,72.222-156.33,125.537-249.403,165.775
	c-145.948,63.102-299.351,66.094-454.364,55.758c-88.269-5.882-176.482-11.282-265.108-10.264
	c-77.073,0.888-153.146,8.795-228.876,22.031c-106.136,18.551-210.867,42.396-310.303,85.103
	c-47.818,20.533-94.569,43.36-133.992,78.455c-24.83,0-49.658,0-74.486,0c62.742-56.498,137.341-92.158,216.358-117.923
	c178.726-58.286,361.479-90.174,550.578-81.639c81.387,3.676,162.673,8.974,244.024,13.026
	c118.698,5.909,235.01-3.102,347.166-44.388c127.815-47.049,237.321-121.22,325.023-226.104
	c70.736-84.594,112.139-183.997,143.93-288.178c21.545-70.593,39.037-142.45,67.109-211.017
	c33-80.613,81.881-147.22,160.638-188.894c73.642-38.964,153.517-54.368,235.233-59.955
	C3900.586,1900.77,4000.479,1901.352,4100.248,1899.588z"/>
<path fill-rule="evenodd" clip-rule="evenodd" fill="#FFFFFF" d="M4100.248,679.433c-175.906,57.555-356.774,91.64-540.067,114.404
	c-103.724,12.884-207.723,22.325-312.087,28.427c-81.358,4.76-162.729,8.06-244.184,10.475
	c-72.387,2.144-143.458,12.944-210.548,42.771c-96.994,43.121-160.482,118.075-203.584,212.658
	c-47.028,103.205-68.497,213.476-88.591,323.989c-26.412,145.274-47.049,291.676-84.955,434.677
	c-36.531,137.83-86.029,270.314-165.704,389.761c-70.905,106.295-155.136,199.655-265.912,266.091
	c-76.698,45.996-160.486,68.089-249.587,70.878c-74.673,2.334-148.854-5.272-222.385-16.055
	c-252.911-37.088-485.197,18.493-698.43,155.397c-118.844,76.306-202.326,182.003-240.346,320.163
	c-7.186,26.113-11.434,53.033-17.037,79.58c-2.364,0-4.729,0-7.094,0c7.394-39.474,15.143-78.806,28.369-116.918
	c41.744-120.298,120.043-212.028,223.687-282.777c132.122-90.19,279.405-142.918,436.77-166.99
	c88.714-13.571,177.85-5.733,266.618,3.987c78.645,8.61,157.179,18.96,236.61,16.113c119.01-4.269,223.333-46.69,314.804-121.872
	c145.12-119.28,240.614-272.631,305.339-446.865c55.037-148.151,83.344-302.735,109.975-457.749
	c20.6-119.925,38.476-240.493,74.829-357.08c27.706-88.861,65.33-172.325,133.745-238.668
	c63.018-61.116,139.499-93.779,224.691-108.521c41.982-7.268,84.369-9.73,126.963-10.745
	c134.611-3.211,268.922-11.375,402.993-24.219c179.627-17.202,357.593-43.953,532.429-89.239
	c44.588-11.552,88.477-25.774,132.689-38.767C4100.248,674.704,4100.248,677.067,4100.248,679.433z"/>
<path fill-rule="evenodd" clip-rule="evenodd" fill="#FFFFFF" d="M4100.248,810.67c-81.255,20.943-162.865,40.295-245.498,55.065
	c-109.338,19.542-219.303,34.395-329.887,44.929c-107.575,10.253-215.26,18.383-323.31,21.458
	c-53.696,1.528-107.4,3.474-161.024,6.584c-101.874,5.91-197.021,31.539-276.967,99.035
	c-53.662,45.311-89.346,103.413-116.783,167.005c-42.473,98.452-62.634,202.98-81.951,307.615
	c-27.025,146.375-49.686,293.657-92.404,436.699c-45.278,151.609-111.123,292.68-214.615,414.036
	c-74.02,86.797-157.803,161.633-264.955,205.54c-82.35,33.741-168.411,43.426-257.074,38.126
	c-104.323-6.235-207.793-23.38-312.356-24.988c-60.808-0.932-121.626,3.516-181.281,16.987
	c-137.704,31.099-268.928,78.122-385.744,159.609c-107.337,74.874-184.054,172.278-217.948,300.453
	c-4.667,17.648-7.172,35.867-10.68,53.824c-2.364,0-4.729,0-7.094,0c14.065-100.71,55.976-188.509,123.55-264.076
	c87.818-98.203,199.194-160.077,320.983-204.972c74.937-27.623,151.278-50.808,230.826-61.396
	c69.333-9.231,138.824-8.736,208.449-3.309c94.721,7.381,188.843,22.792,284.137,22.328
	c133.587-0.651,250.764-45.585,352.718-131.649c156.278-131.925,254.388-300.8,315.451-493.559
	c37.396-118.051,60.563-239.295,82.406-360.875c18.488-102.908,34.706-206.306,63.851-306.979
	c21.972-75.886,50.115-149.083,97.954-213.057c69.139-92.45,164.325-139.433,276.119-156.95
	c52.065-8.161,104.635-9.023,157.165-10.523c103.877-2.964,207.569-8.933,311.18-17.246c141.394-11.351,281.962-28.59,421.47-54.257
	c74.406-13.692,148.224-30.08,221.179-50.232c3.956-1.095,8.084-1.563,12.134-2.321
	C4100.248,805.942,4100.248,808.304,4100.248,810.67z"/>
<path fill-rule="evenodd" clip-rule="evenodd" fill="#FFFFFF" d="M4100.248,931.267c-130.582,31.199-262.832,52.658-396.138,68.078
	c-116.14,13.437-232.586,22.522-349.348,28.833c-83.741,4.527-167.622,4.769-251.28,10.017
	c-97.172,6.093-189.274,28.788-267.605,90.773c-67.035,53.045-108.394,123.87-138.054,202.481
	c-37.966,100.614-56.669,205.988-76.24,311.122c-25.84,138.837-51.004,277.83-97.483,411.78
	c-55.524,160.025-139.525,301.983-264.463,418.188c-95.064,88.421-203.523,148.969-334.543,164.084
	c-59.609,6.877-119.057,4.357-178.575-0.688c-80.554-6.83-160.786-17.14-241.729-19.845
	c-110.032-3.679-216.429,14.854-320.791,48.23c-84.734,27.098-166.774,60.28-242.053,108.242
	c-126.869,80.828-216.237,189.197-246.783,340.085c-1.183,0-2.364,0-3.547,0c5.461-51.469,24.662-98.421,49.325-143.06
	c55.507-100.479,139.328-171.996,238.655-226.019c118.951-64.694,246.174-106.032,379.923-126.465
	c75.1-11.471,150.602-9.3,226.199-2.947c89.373,7.509,178.29,19.868,268.359,20.015c135.18,0.221,253.401-43.769,357.765-128.412
	c137.719-111.69,231.679-253.939,293.941-418.514c51.078-134.999,78.162-276.002,104.431-417.236
	c21.171-113.824,40.365-228.121,80.77-337.404c32.679-88.38,80.459-165.782,158.861-220.993
	c59.782-42.096,127.608-63.035,199.137-74.351c52.169-8.251,104.844-7.741,157.25-9.39c123.386-3.886,246.493-10.959,369.455-21.757
	c146.037-12.819,291.109-32.155,434.809-61.23c30.08-6.085,60.406-11.348,89.752-20.714
	C4100.248,926.539,4100.248,928.901,4100.248,931.267z"/>
<path fill-rule="evenodd" clip-rule="evenodd" fill="#FFFFFF" d="M4100.248,1044.77c-57.33,14.559-115.848,22.779-174.162,31.819
	c-114.979,17.821-230.678,29.872-346.67,38.442c-71.21,5.261-142.574,8.725-213.92,12.282
	c-87.205,4.35-174.893,0.347-261.596,13.817c-81.524,12.667-156.533,40.613-219.824,95.297
	c-49.8,43.031-83.85,97.257-109.846,156.946c-41.867,96.125-61.553,198.36-81.472,300.428
	c-27.728,142.087-53.599,284.585-103.56,421.191c-68.59,187.546-178.213,344.631-343.781,459.309
	c-83.41,57.773-176.492,88.417-277.994,96.142c-77.765,5.923-154.934,0.124-231.35-10.427
	c-243.712-33.646-474.514,4.518-691.902,119.281c-107.862,56.941-197.136,134.164-249.432,247.83
	c-12.647,27.489-22.369,55.916-28.638,85.521c-2.364,0-4.729,0-7.094,0c14.731-57.09,36.517-110.888,71.061-159.291
	c51.844-72.65,118.682-128.062,196.009-171.089c126.432-70.347,262.458-112.73,405.2-133.239
	c70.904-10.188,142.338-8.005,213.803-2.717c92.389,6.835,184.262,19.87,277.269,19.71
	c137.991-0.232,259.173-44.698,366.335-130.787c139.395-111.986,233.607-255.122,294.774-421.708
	c44.607-121.483,69.517-247.841,94.034-374.319c17.989-92.813,35.136-185.817,64.052-276.081
	c21.24-66.305,49.63-128.979,93.521-183.801c57.88-72.308,134.311-114.078,223.074-135.183
	c52.486-12.481,105.858-17.042,159.82-18.441c130.424-3.384,260.72-9.339,390.842-19.799
	c162.048-13.024,323.029-33.156,482.619-64.223c2.861-0.559,5.882-0.323,8.826-0.458
	C4100.248,1042.404,4100.248,1043.588,4100.248,1044.77z"/>
<path fill-rule="evenodd" clip-rule="evenodd" fill="#FFFFFF" d="M4100.248,1154.726c-68.346,10.018-136.504,21.258-205.163,29.158
	c-74.479,8.573-149.048,15.865-223.817,21.553c-113.641,8.646-227.367,14.51-341.3,17.239
	c-71.972,1.726-143.901,3.562-214.553,21.102c-133.126,33.049-223.968,114.175-277.665,239.091
	c-40.922,95.197-60.786,196.144-81.209,296.885c-23.127,114.081-45.362,228.336-82.411,339.022
	c-52.097,155.634-132.29,293.661-253.857,405.816c-96.821,89.322-206.375,153.471-339.237,171.573
	c-62.363,8.497-124.893,6.734-187.445,3.115c-66.003-3.819-131.753-10.892-197.611-16.396
	c-186.192-15.557-361.877,24.611-531.375,97.217c-102.251,43.797-194.133,103.152-261.523,194.396
	c-30.807,41.711-54.179,87.251-66.041,138.151c-2.364,0-4.729,0-7.094,0c37.988-137.13,130.033-229.538,250.03-296.809
	c138.956-77.905,289.369-121.438,447.29-138.916c78.429-8.681,156.873-2.256,235.174,4.65
	c78.793,6.952,157.468,16.537,236.73,15.372c150.003-2.206,279.081-57.19,392.261-154.41
	c152.631-131.108,242.773-299.322,296.851-489.879c34.253-120.701,54.371-244.502,81.643-366.732
	c18.036-80.833,39.415-160.591,76.848-235.306c58.199-116.167,151.365-186.316,277.208-214.75
	c52.646-11.895,105.944-16.526,159.896-18.005c119.209-3.267,238.357-7.891,357.375-16.509
	c153.842-11.143,306.938-27.784,458.996-53.724C4100.248,1149.997,4100.248,1152.36,4100.248,1154.726z"/>
<path fill-rule="evenodd" clip-rule="evenodd" fill="#FFFFFF" d="M4100.248,1257.588c-45.134,5.341-90.254,10.824-135.412,15.985
	c-69.799,7.977-139.748,14.326-209.779,20.024c-97.125,7.904-194.457,11.874-291.751,16.353
	c-54.864,2.529-109.887,0.828-164.741,4.673c-80.929,5.677-159.333,21.146-231.138,61.063
	c-84.708,47.091-137.058,121.155-172.55,208.983c-34.067,84.285-52.641,172.794-71.051,261.34
	c-27.315,131.387-54.776,262.731-106.264,387.491c-46.571,112.849-111.452,213.732-199.316,298.772
	c-96.428,93.334-205.778,164.134-340.685,188.734c-76.812,14.009-153.818,12.686-231.203,6.789
	c-79.454-6.054-158.667-14.51-238.497-16.716c-192.436-5.325-372.141,42.719-543.132,126.766
	c-87.159,42.844-161.959,102.014-215.23,185c-17.911,27.9-32.692,57.555-41.519,89.803c-2.364,0-4.73,0-7.094,0
	c40.281-124.705,129.017-206.946,239.383-268.453c134.954-75.21,281.527-115.966,433.943-135.076
	c80.431-10.084,161.451-5.425,242.282,1.22c80.556,6.619,160.937,15.698,242.025,15.601
	c152.554-0.183,284.698-52.813,401.613-149.302c154.02-127.112,244.959-292.67,299.077-481.521
	c30.636-106.904,50.137-216.337,74.591-324.648c16.933-74.987,36.775-149.044,69.184-219.298
	c62.833-136.209,171.935-208.949,316.806-233.476c46.104-7.804,92.561-9.965,139.29-11.441
	c116.794-3.692,233.581-7.655,350.218-15.93c127.843-9.068,255.246-21.504,382.102-39.65c2.9-0.416,5.896-0.135,8.848-0.18
	C4100.248,1252.859,4100.248,1255.222,4100.248,1257.588z"/>
<path fill-rule="evenodd" clip-rule="evenodd" fill="#FFFFFF" d="M4100.248,1353.356c-52.855,5.254-105.672,10.904-158.57,15.656
	c-53.486,4.805-107.012,9.318-160.59,12.906c-124.324,8.327-248.77,13.235-373.388,15.29c-59.53,0.983-118.851,7.686-176.995,23.111
	c-132.938,35.268-221.287,119.08-271.767,245.343c-33.286,83.26-52.195,170.461-71.06,257.681
	c-25.618,118.446-51.658,236.798-99.322,348.926c-81.639,192.07-211.744,339.65-400.646,432.029
	c-70.98,34.715-147.12,49.863-225.902,54.413c-93.026,5.377-185.019-6.082-277.268-13.965
	c-161.188-13.776-319.547-1.628-474.695,47.256c-96.933,30.542-190.389,67.795-273.987,126.56
	c-70.703,49.694-125.636,112.491-157.137,194.088c-2.366,0-4.731,0-7.096,0c44.769-114.122,130.452-189.596,235.513-245.189
	c131.579-69.631,273.101-108.354,420.099-127.822c98.452-13.043,196.827-5.752,295.246,2.658
	c71.746,6.132,143.5,13.167,215.721,11.791c150.094-2.86,280.787-55.639,396.857-149.664
	c155.109-125.651,245.173-290.861,298.222-479.7c30.714-109.339,49.899-221.355,78.258-331.219
	c18.067-69.982,39.713-138.656,77.063-201.313c53.845-90.326,132.409-147.771,233.268-175.54
	c61.311-16.88,123.811-23.734,187.391-25.158c118.657-2.656,237.332-6.428,355.76-14.375
	c108.965-7.309,217.834-16.319,326.172-30.62c2.909-0.384,5.898-0.169,8.854-0.235
	C4100.248,1348.628,4100.248,1350.99,4100.248,1353.356z"/>
<path fill-rule="evenodd" clip-rule="evenodd" fill="#FFFFFF" d="M4100.248,1442.029c-59.055,8.528-118.568,12.664-177.979,17.247
	c-117.139,9.04-234.521,14.59-351.95,17.846c-70.841,1.964-141.806,0.783-212.083,11.597
	c-93.07,14.322-178.736,45.49-246.361,114.379c-47.281,48.161-77.341,106.967-99.963,169.787
	c-31.933,88.671-49.682,181.089-70.973,272.552c-26.59,114.209-57.406,227.029-113.066,331.197
	c-87.569,163.887-214.308,286.802-385.016,362.144c-68.823,30.379-141.956,44.425-216.959,47.482
	c-87.557,3.564-174.617-4.741-261.66-12.885c-171.856-16.084-340.688-2.374-505.954,49.917
	c-84.291,26.667-166.196,58.171-240.78,106.409c-65.485,42.349-121.376,94.007-156.865,164.934
	c-2.886,5.767-4.843,11.998-7.233,18.015c-2.364,0-4.73,0-7.094,0c21.893-57.34,60.297-102.573,106.125-141.758
	c91.851-78.534,201.057-122.643,315.267-156.26c89.767-26.419,180.922-46.616,274.518-52.142
	c70.212-4.142,140.567-2.24,210.693,4.137c101.227,9.206,202.646,18.712,304.239,11.115
	c128.096-9.578,240.508-59.982,341.914-137.863c127.487-97.913,215.025-224.214,271.533-373.481
	c39.491-104.32,61.959-213.202,87.111-321.388c19.021-81.792,39.159-163.202,75.977-239.41
	c56.831-117.656,151.893-185.575,277.312-214.079c55.497-12.611,111.804-16.931,168.732-18.576
	c126.277-3.657,252.597-6.737,378.677-16.069c73.008-5.407,146.031-10.291,218.824-18.223c7.586-0.828,15.338-0.149,23.014-0.17
	C4100.248,1439.664,4100.248,1440.849,4100.248,1442.029z"/>
<path fill-rule="evenodd" clip-rule="evenodd" fill="#FFFFFF" d="M4100.248,1530.704c-63.021,4.181-126.039,8.375-189.06,12.535
	c-25.917,1.708-51.818,4.07-77.764,4.867c-93.274,2.868-186.485,7.187-279.835,8.549c-75.605,1.104-150.819,8.247-223.771,31.548
	c-115.896,37.018-193.777,113.693-240.297,224.646c-32.861,78.384-51.081,160.954-70.545,243.165
	c-28.362,119.79-57.495,239.572-116.698,348.68c-106.705,196.645-263.387,333.112-482.987,390.214
	c-88.047,22.893-178.128,19.283-267.909,14.05c-53.624-3.127-107.126-8.345-160.75-11.437c-32.401-1.872-64.826-3.524-97.341-4.112
	c-135.109-2.453-265.523,23.616-393.935,62.525c-81.799,24.787-160.145,57.434-231.762,104.815
	c-59.605,39.437-109.074,88.467-143.249,151.899c-1.183,0-2.364,0-3.547,0c10.125-30.478,30.216-54.598,51.122-77.833
	c58.122-64.592,130.69-108.604,209.752-142.026c129.35-54.685,264.42-88.184,404.068-102.117
	c71.83-7.166,143.829-3.744,215.834,1.219c64.192,4.424,128.31,9.872,192.596,13.336c67.059,3.613,133.44,0.974,199.326-10.977
	c116.386-21.111,216.55-75.907,307.326-149.933c116.3-94.832,194.922-215.586,246.211-355.424
	c39.2-106.875,60.589-218.532,88.807-328.364c17.516-68.186,37.437-135.487,71.579-197.802
	c53.356-97.379,134.965-157.659,241.201-186.25c60.204-16.201,121.527-23.523,183.856-25.148
	c107.435-2.798,214.886-5.888,322.228-11.015c75.438-3.602,150.707-10.81,226.059-16.318c6.471-0.475,12.99-0.273,19.484-0.388
	C4100.248,1525.976,4100.248,1528.338,4100.248,1530.704z"/>
<path fill-rule="evenodd" clip-rule="evenodd" fill="#FFFFFF" d="M4100.248,1612.284c-81.324,4.451-162.613,9.864-243.988,13.052
	c-67.264,2.633-134.574,4.472-201.906,5.722c-79.631,1.483-159.39,3.9-237.188,25.117c-66.179,18.046-126.506,46.827-175.835,95.02
	c-46.942,45.864-76.869,102.733-99.558,163.728c-28.932,77.773-45.627,158.925-66.154,239.012
	c-24.25,94.602-51.646,188.121-96.779,275.32c-73.915,142.806-182.992,251.155-323.698,328.072
	c-98.485,53.839-204.122,78.479-316.252,79.604c-91.723,0.914-182.766-7.396-274.004-14.124
	c-128.559-9.476-255.987-2.583-382.063,26.204c-104.042,23.756-205.978,53.303-300.868,103.306
	c-73.692,38.836-138.379,88.279-183.121,160.334c-1.185,0-2.366,0-3.549,0c14-34.319,39.563-59.932,66.07-84.091
	c88.803-80.934,197.245-124.016,310.275-157.275c81.714-24.046,164.779-42.685,249.54-51.915
	c79.345-8.646,158.962-7.319,238.616-2.63c67.174,3.959,134.207,9.796,201.425,13.374c59.304,3.158,118.03,1.024,176.624-6.866
	c118.395-15.944,222.039-66.068,316.858-137.109c144.333-108.137,232.501-253.572,284.539-423.615
	c30.963-101.186,50.551-205.395,81.979-306.432c15.126-48.632,33.917-95.732,60.824-139.314
	c51.256-83.028,125.715-134.629,218.241-161.89c78.394-23.09,158.831-27.67,240.065-29.46
	c127.448-2.81,254.938-6.189,382.119-16.187c25.875-2.032,51.855-2.733,77.787-4.049
	C4100.248,1607.556,4100.248,1609.918,4100.248,1612.284z"/>
<path fill-rule="evenodd" clip-rule="evenodd" fill="#FFFFFF" d="M4100.248,1686.771c-26.65,6.724-54.141,4.956-81.099,6.204
	c-81.39,3.768-162.842,6.709-244.309,9.172c-90.11,2.729-180.831-0.555-269.783,20.284c-70.645,16.55-136.433,42.265-191.267,91.563
	c-48.217,43.35-79.419,97.777-103.079,157.123c-28.331,71.058-44.937,145.589-64.258,219.292
	c-24.461,93.318-51.847,185.509-96.699,271.606c-70.406,135.148-174.924,236.628-306.538,311.283
	c-108.454,61.521-225.658,88.225-349.94,88.105c-85.177-0.079-169.851-7.197-254.593-13.955
	c-170.361-13.585-337.284,5.316-501.243,52.553c-91.241,26.288-179.56,59.313-258.803,113.091
	c-35.448,24.053-67.163,52.166-93.469,86.115c-3.208,4.138-5.557,8.947-8.305,13.442c-2.364,0-4.729,0-7.094,0
	c27.41-45.685,67.41-78.774,110.651-107.951c79.814-53.844,169.008-86.73,261.132-111.882
	c109.61-29.927,220.48-51.658,334.818-54.599c69.227-1.781,137.942,2.482,206.79,6.912c108.397,6.974,216.771,16.437,325.271,1.781
	c97.692-13.197,186.772-48.981,269.846-101.489c152.775-96.558,256.396-231.238,316.161-401.199
	c33.979-96.63,54.538-196.912,83.303-294.935c16.504-56.239,36.248-111.214,67.189-161.487
	c51.94-84.399,128.467-135.079,222.313-161.889c81.414-23.257,164.938-27.843,249.025-28.986
	c115.689-1.568,231.313-5.556,346.781-13.346c12.348-0.832,24.795-0.271,37.195-0.356
	C4100.248,1684.405,4100.248,1685.59,4100.248,1686.771z"/>
<path fill-rule="evenodd" clip-rule="evenodd" fill="#FFFFFF" d="M4100.248,1761.257c-116.73,6.886-233.566,9.765-350.484,11.732
	c-80.318,1.351-160.291,8.632-237.661,33.734c-110.444,35.836-186.351,107.967-230.829,214.628
	c-34.269,82.173-53.475,168.849-77.278,254.149c-32.798,117.541-75.37,230.854-153.87,326.293
	c-125.89,153.046-285.687,248.894-483.607,276.118c-78.066,10.738-156.547,7.437-235.04,1.867
	c-102.46-7.271-205.087-17.142-307.838-11.066c-179.596,10.623-353.321,47.847-516.515,126.055
	c-59.622,28.575-112.847,66.7-155.772,117.882c-1.183,0-2.364,0-3.547,0c12.128-23.831,32.813-39.989,52.622-56.395
	c76.125-63.049,165.813-99.467,258.989-127.926c101.953-31.137,206.037-52.955,312.242-63.011
	c83.111-7.87,166.37-5.386,249.537,0.979c37.674,2.884,75.336,6.267,113.07,7.856c45.428,1.92,90.811,4.606,136.367,4.285
	c181.383-1.285,339.255-63.79,477.568-179.677c123.365-103.359,195.133-237.999,239.832-389.601
	c23.398-79.35,41.545-160.199,68.1-238.641c19.457-57.476,44.774-111.688,84.24-158.762c46.818-55.833,106.783-90.382,175.1-112.28
	c60.092-19.259,122.136-27.964,184.785-30.797c66.666-3.014,133.479-2.611,200.203-4.562c61.387-1.794,122.741-4.676,184.104-7.253
	c5.258-0.222,10.457-1.773,15.684-2.705C4100.248,1756.528,4100.248,1758.891,4100.248,1761.257z"/>
<path fill-rule="evenodd" clip-rule="evenodd" fill="#FFFFFF" d="M4100.248,1832.195c-103.916,3.087-207.82,6.194-311.77,8.275
	c-73.876,1.479-147.141,11.095-218.054,34.341c-107.992,35.399-181.779,106.737-225.394,210.843
	c-28.423,67.846-46.251,138.987-66.158,209.486c-27.722,98.164-59.525,194.882-117.493,279.999
	c-117.179,172.063-279.712,276.87-483.149,317.705c-74.963,15.051-151.112,17.074-227.591,11.681
	c-74.783-5.272-149.786-7.462-224.615-12.203c-193.494-12.262-380.263,21.292-562.577,83.128
	c-78.754,26.71-153.331,62.408-215.12,120.162c-5.573,5.209-10.285,11.336-15.395,17.037c-2.366,0-4.731,0-7.096,0
	c28.799-38.171,68.03-63.488,108.791-86.318c109.714-61.446,229.724-92.284,351.893-116.284
	c76.037-14.94,152.591-23.869,230.299-25.594c86.94-1.93,173.334,4.509,259.851,10.163c140.307,9.171,280.432,13.487,414.735-38.381
	c208.502-80.526,359.723-220.012,439.448-432.144c28.543-75.947,47.95-154.573,70.85-232.184
	c17.582-59.603,37.021-118.529,70.268-171.727c59.294-94.882,148.626-143.86,255.007-167.109
	c66.702-14.579,134.394-19.512,202.329-20.326c90.367-1.076,180.674-3.453,270.941-7.645
	C4100.248,1827.468,4100.248,1829.83,4100.248,1832.195z"/>
<path fill-rule="evenodd" clip-rule="evenodd" fill="#FFFFFF" d="M4100.248,1899.588c-99.77,1.764-199.662,1.182-299.223,7.991
	c-81.717,5.587-161.592,20.991-235.233,59.955c-78.757,41.674-127.638,108.28-160.638,188.894
	c-28.072,68.566-45.564,140.424-67.109,211.017c-31.791,104.181-73.193,203.584-143.93,288.178
	c-87.702,104.885-197.208,179.056-325.023,226.104c-112.156,41.286-228.468,50.297-347.166,44.388
	c-81.352-4.053-162.638-9.351-244.024-13.026c-189.1-8.535-371.853,23.353-550.578,81.639
	c-79.018,25.765-153.616,61.425-216.358,117.923c-2.364,0-4.73,0-7.094,0c27.97-29.56,61.943-50.956,97.345-70.028
	c97.277-52.408,202.78-80.257,309.869-103.862c131.359-28.954,264.239-37.461,398.138-31.466
	c102.021,4.568,203.728,15.105,306.067,13.679c181.249-2.532,341.135-62.737,481.485-176.351
	c106.157-85.934,174.65-197.233,218.194-325.316c20.173-59.342,36.197-119.921,54.548-179.804
	c20.684-67.497,44.919-133.329,89.035-189.891c51.739-66.34,121.729-103.454,201.078-125.076
	c58.943-16.062,119.208-23.911,180.283-25.455c86.778-2.196,173.555-4.389,260.334-6.585
	C4100.248,1894.859,4100.248,1897.223,4100.248,1899.588z"/>
<path fill-rule="evenodd" clip-rule="evenodd" fill="#FFFFFF" d="M4100.248,1963.434c-104.49,0.347-209.15-2.286-312.832,14.604
	c-77.965,12.698-151.529,36.616-214.047,87.368c-46.635,37.86-77.547,86.979-100.754,141.463
	c-32.275,75.754-51.184,155.976-77.62,233.695c-27.784,81.69-63.749,158.912-117.64,226.987
	c-76.979,97.244-175.695,165.631-287.966,215.45c-96.896,42.997-198.864,61.708-304.792,63.988
	c-99.332,2.137-197.99-7.562-296.964-11.514c-45.43-1.815-90.86-5.249-136.326-3.05c-195.523,9.446-386.207,41.732-565.769,123.778
	c-32.092,14.662-63.482,31.541-89.447,56.445c-3.547,0-7.094,0-10.641,0c39.423-35.095,86.174-57.922,133.992-78.455
	c99.436-42.706,204.167-66.552,310.303-85.103c75.729-13.236,151.803-21.144,228.876-22.031
	c88.626-1.019,176.84,4.382,265.108,10.264c155.014,10.336,308.416,7.344,454.364-55.758
	c93.073-40.238,177.851-93.554,249.403-165.775c72.813-73.492,122.353-161.781,155.32-259.313
	c23.638-69.932,44.754-140.715,68.18-210.723c19.857-59.342,47.932-114.382,91.885-160.073
	c58.504-60.825,132.641-90.961,213.283-107.961c55.61-11.722,111.873-17.801,168.752-18.296
	c58.454-0.509,116.836-4.995,175.33-3.086C4100.248,1958.705,4100.248,1961.067,4100.248,1963.434z"/>
</svg>
